<?xml version="1.0" encoding="UTF-8" standalone="no"?>
<!DOCTYPE svg PUBLIC "-//W3C//DTD SVG 1.1//EN" "http://www.w3.org/Graphics/SVG/1.1/DTD/svg11.dtd">
<svg width="100%" height="100%" viewBox="0 0 128 128" version="1.1" xmlns="http://www.w3.org/2000/svg" xmlns:xlink="http://www.w3.org/1999/xlink" xml:space="preserve" xmlns:serif="http://www.serif.com/" style="fill-rule:evenodd;clip-rule:evenodd;">
    <g transform="matrix(1,0,0,1,32,32)">
        <path d="M-16,-32C-24.86,-32 -32,-24.87 -32,-16.01L-32,79.97C-32,88.83 -24.87,95.96 -16,95.96L80,95.96C88.86,95.96 96,88.83 96,79.97L96,-16.01C96,-24.86 88.86,-32 80,-32L-16,-32Z" style="fill:rgb(54,61,82);fill-rule:nonzero;"/>
        <path d="M-16,-32C-24.86,-32 -32,-24.87 -32,-16.01L-32,79.97C-32,88.83 -24.87,95.96 -16,95.96L80,95.96C88.86,95.96 96,88.83 96,79.97L96,-16.01C96,-24.86 88.86,-32 80,-32L-16,-32ZM-16,-28L80,-28C86.64,-28 92,-22.65 92,-16.01L92,79.97C92,86.61 86.65,91.96 80,91.96L-16,91.96C-22.64,91.96 -28,86.61 -28,79.97L-28,-16.01C-28,-22.65 -22.64,-28 -16,-28Z" style="fill-opacity:0.4;fill-rule:nonzero;"/>
    </g>
    <g transform="matrix(0.448328,0,0,0.448328,6.88777,6.61406)">
        <path d="M196.188,150.917L118.036,72.765L120.139,72.765L164.887,117.513C164.935,117.56 164.984,117.61 165.036,117.662C165.568,118.201 166.341,118.983 167.37,119.409C168.399,119.835 169.498,119.829 170.256,119.824L209.947,119.824C210.461,119.824 211.129,119.825 211.681,119.747C212.158,119.679 213.898,119.386 214.64,117.594C215.382,115.802 214.359,114.365 214.069,113.98C213.735,113.535 213.262,113.063 212.898,112.699C212.869,112.671 212.841,112.643 212.814,112.616L206.92,106.722C206.873,106.675 206.824,106.625 206.772,106.573C206.24,106.034 205.467,105.252 204.438,104.826C203.409,104.4 202.31,104.406 201.553,104.411C201.479,104.411 201.409,104.412 201.343,104.412L197.524,104.411C197.268,104.411 197.074,104.411 196.906,104.409C196.844,104.408 196.79,104.407 196.744,104.405C196.711,104.374 196.672,104.337 196.627,104.293C196.507,104.177 196.37,104.039 196.188,103.858L150.74,58.41L150.736,58.405C150.709,58.379 150.593,58.261 150.467,58.153C150.294,58.005 149.998,57.778 149.579,57.604C149.159,57.43 148.789,57.381 148.562,57.364C148.384,57.35 148.205,57.352 148.187,57.352L102.624,57.353L63.236,17.965C63.209,17.938 63.181,17.91 63.152,17.881C62.789,17.517 62.317,17.044 61.872,16.71C61.487,16.42 60.05,15.397 58.258,16.139C56.466,16.881 56.173,18.621 56.105,19.098C56.027,19.65 56.028,20.318 56.028,20.832C56.028,20.873 56.028,20.912 56.028,20.951L56.028,52.446C56.028,52.512 56.028,52.582 56.028,52.656C56.023,53.414 56.017,54.513 56.443,55.542C56.869,56.571 57.651,57.343 58.19,57.876C58.242,57.927 58.292,57.977 58.339,58.024L191.291,190.976C191.318,191.003 191.346,191.031 191.375,191.06C191.738,191.424 192.21,191.897 192.655,192.232C193.041,192.522 194.478,193.544 196.27,192.802C198.062,192.06 198.355,190.321 198.422,189.843C198.5,189.291 198.5,188.624 198.499,188.109L198.499,156.496C198.499,156.429 198.499,156.359 198.5,156.285C198.504,155.528 198.511,154.429 198.085,153.4C197.658,152.371 196.877,151.598 196.338,151.065C196.285,151.014 196.235,150.964 196.188,150.917ZM196.188,197.976L63.236,65.024C63.209,64.997 63.181,64.969 63.152,64.94C62.789,64.576 62.317,64.103 61.872,63.768C61.487,63.478 60.05,62.456 58.258,63.198C56.466,63.94 56.173,65.68 56.105,66.157C56.027,66.709 56.028,67.376 56.028,67.891C56.028,67.932 56.028,67.971 56.028,68.01L56.028,99.504C56.028,99.571 56.028,99.641 56.028,99.715C56.023,100.472 56.017,101.571 56.443,102.6C56.869,103.629 57.651,104.402 58.19,104.935C58.242,104.986 58.292,105.036 58.339,105.083L136.491,183.235L134.389,183.235L89.64,138.486C89.593,138.439 89.544,138.389 89.492,138.337C88.96,137.798 88.187,137.017 87.158,136.59C86.129,136.164 85.03,136.171 84.272,136.175C84.199,136.175 84.129,136.176 84.062,136.176L44.832,136.176C44.318,136.175 43.65,136.175 43.098,136.253C42.621,136.32 40.881,136.613 40.139,138.405C39.397,140.197 40.42,141.634 40.71,142.02C41.044,142.465 41.517,142.936 41.881,143.3C41.91,143.328 41.938,143.356 41.965,143.384L47.859,149.277C47.906,149.324 47.955,149.374 48.007,149.426C48.539,149.965 49.312,150.747 50.341,151.173C51.37,151.599 52.469,151.593 53.227,151.588L57.003,151.588C57.26,151.588 57.454,151.588 57.621,151.59C57.684,151.591 57.737,151.592 57.783,151.594C57.817,151.625 57.855,151.662 57.9,151.706C58.02,151.822 58.158,151.96 58.339,152.141L103.787,197.589C103.8,197.602 103.925,197.73 104.06,197.846C104.233,197.994 104.529,198.221 104.949,198.395C105.369,198.569 105.738,198.618 105.965,198.635C106.13,198.647 106.296,198.647 106.334,198.647L106.34,198.646L151.903,198.646L191.291,238.035L191.375,238.119C191.738,238.483 192.21,238.956 192.655,239.29C193.041,239.58 194.478,240.603 196.27,239.861C198.062,239.119 198.355,237.379 198.422,236.902C198.5,236.35 198.5,235.682 198.499,235.168L198.499,203.554C198.499,203.488 198.499,203.418 198.5,203.344C198.504,202.586 198.511,201.487 198.085,200.458C197.658,199.429 196.877,198.657 196.338,198.124C196.285,198.073 196.235,198.023 196.188,197.976Z" style="fill:url(#_Linear1);fill-rule:nonzero;"/>
        <path d="M196.188,150.917L118.036,72.765L120.139,72.765L164.887,117.513C164.935,117.56 164.984,117.61 165.036,117.662C165.568,118.201 166.341,118.983 167.37,119.409C168.399,119.835 169.498,119.829 170.256,119.824L209.947,119.824C210.461,119.824 211.129,119.825 211.681,119.747C212.158,119.679 213.898,119.386 214.64,117.594C215.382,115.802 214.359,114.365 214.069,113.98C213.735,113.535 213.262,113.063 212.898,112.699C212.869,112.671 212.841,112.643 212.814,112.616L206.92,106.722C206.873,106.675 206.824,106.625 206.772,106.573C206.24,106.034 205.467,105.252 204.438,104.826C203.409,104.4 202.31,104.406 201.553,104.411C201.479,104.411 201.409,104.412 201.343,104.412L197.524,104.411C197.268,104.411 197.074,104.411 196.906,104.409C196.844,104.408 196.79,104.407 196.744,104.405C196.711,104.374 196.672,104.337 196.627,104.293C196.507,104.177 196.37,104.039 196.188,103.858L150.74,58.41L150.736,58.405C150.709,58.379 150.593,58.261 150.467,58.153C150.294,58.005 149.998,57.778 149.579,57.604C149.159,57.43 148.789,57.381 148.562,57.364C148.384,57.35 148.205,57.352 148.187,57.352L102.624,57.353L63.236,17.965C63.209,17.938 63.181,17.91 63.152,17.881C62.789,17.517 62.317,17.044 61.872,16.71C61.487,16.42 60.05,15.397 58.258,16.139C56.466,16.881 56.173,18.621 56.105,19.098C56.027,19.65 56.028,20.318 56.028,20.832C56.028,20.873 56.028,20.912 56.028,20.951L56.028,52.446C56.028,52.512 56.028,52.582 56.028,52.656C56.023,53.414 56.017,54.513 56.443,55.542C56.869,56.571 57.651,57.343 58.19,57.876C58.242,57.927 58.292,57.977 58.339,58.024L191.291,190.976C191.318,191.003 191.346,191.031 191.375,191.06C191.738,191.424 192.21,191.897 192.655,192.232C193.041,192.522 194.478,193.544 196.27,192.802C198.062,192.06 198.355,190.321 198.422,189.843C198.5,189.291 198.5,188.624 198.499,188.109L198.499,156.496C198.499,156.429 198.499,156.359 198.5,156.285C198.504,155.528 198.511,154.429 198.085,153.4C197.658,152.371 196.877,151.598 196.338,151.065C196.285,151.014 196.235,150.964 196.188,150.917ZM196.188,197.976L63.236,65.024C63.209,64.997 63.181,64.969 63.152,64.94C62.789,64.576 62.317,64.103 61.872,63.768C61.487,63.478 60.05,62.456 58.258,63.198C56.466,63.94 56.173,65.68 56.105,66.157C56.027,66.709 56.028,67.376 56.028,67.891C56.028,67.932 56.028,67.971 56.028,68.01L56.028,99.504C56.028,99.571 56.028,99.641 56.028,99.715C56.023,100.472 56.017,101.571 56.443,102.6C56.869,103.629 57.651,104.402 58.19,104.935C58.242,104.986 58.292,105.036 58.339,105.083L136.491,183.235L134.389,183.235L89.64,138.486C89.593,138.439 89.544,138.389 89.492,138.337C88.96,137.798 88.187,137.017 87.158,136.59C86.129,136.164 85.03,136.171 84.272,136.175C84.199,136.175 84.129,136.176 84.062,136.176L44.832,136.176C44.318,136.175 43.65,136.175 43.098,136.253C42.621,136.32 40.881,136.613 40.139,138.405C39.397,140.197 40.42,141.634 40.71,142.02C41.044,142.465 41.517,142.936 41.881,143.3C41.91,143.328 41.938,143.356 41.965,143.384L47.859,149.277C47.906,149.324 47.955,149.374 48.007,149.426C48.539,149.965 49.312,150.747 50.341,151.173C51.37,151.599 52.469,151.593 53.227,151.588L57.003,151.588C57.26,151.588 57.454,151.588 57.621,151.59C57.684,151.591 57.737,151.592 57.783,151.594C57.817,151.625 57.855,151.662 57.9,151.706C58.02,151.822 58.158,151.96 58.339,152.141L103.787,197.589C103.8,197.602 103.925,197.73 104.06,197.846C104.233,197.994 104.529,198.221 104.949,198.395C105.369,198.569 105.738,198.618 105.965,198.635C106.13,198.647 106.296,198.647 106.334,198.647L106.34,198.646L151.903,198.646L191.291,238.035L191.375,238.119C191.738,238.483 192.21,238.956 192.655,239.29C193.041,239.58 194.478,240.603 196.27,239.861C198.062,239.119 198.355,237.379 198.422,236.902C198.5,236.35 198.5,235.682 198.499,235.168L198.499,203.554C198.499,203.488 198.499,203.418 198.5,203.344C198.504,202.586 198.511,201.487 198.085,200.458C197.658,199.429 196.877,198.657 196.338,198.124C196.285,198.073 196.235,198.023 196.188,197.976Z" style="fill:rgb(0,87,255);fill-opacity:0.2;fill-rule:nonzero;"/>
        <path d="M196.188,150.917L118.036,72.765L120.139,72.765L164.887,117.513C164.935,117.56 164.984,117.61 165.036,117.662C165.568,118.201 166.341,118.983 167.37,119.409C168.399,119.835 169.498,119.829 170.256,119.824L209.947,119.824C210.461,119.824 211.129,119.825 211.681,119.747C212.158,119.679 213.898,119.386 214.64,117.594C215.382,115.802 214.359,114.365 214.069,113.98C213.735,113.535 213.262,113.063 212.898,112.699C212.869,112.671 212.841,112.643 212.814,112.616L206.92,106.722C206.873,106.675 206.824,106.625 206.772,106.573C206.24,106.034 205.467,105.252 204.438,104.826C203.409,104.4 202.31,104.406 201.553,104.411C201.479,104.411 201.409,104.412 201.343,104.412L197.524,104.411C197.268,104.411 197.074,104.411 196.906,104.409C196.844,104.408 196.79,104.407 196.744,104.405C196.711,104.374 196.672,104.337 196.627,104.293C196.507,104.177 196.37,104.039 196.188,103.858L150.74,58.41L150.736,58.405C150.709,58.379 150.593,58.261 150.467,58.153C150.294,58.005 149.998,57.778 149.579,57.604C149.159,57.43 148.789,57.381 148.562,57.364C148.384,57.35 148.205,57.352 148.187,57.352L102.624,57.353L63.236,17.965C63.209,17.938 63.181,17.91 63.152,17.881C62.789,17.517 62.317,17.044 61.872,16.71C61.487,16.42 60.05,15.397 58.258,16.139C56.466,16.881 56.173,18.621 56.105,19.098C56.027,19.65 56.028,20.318 56.028,20.832C56.028,20.873 56.028,20.912 56.028,20.951L56.028,52.446C56.028,52.512 56.028,52.582 56.028,52.656C56.023,53.414 56.017,54.513 56.443,55.542C56.869,56.571 57.651,57.343 58.19,57.876C58.242,57.927 58.292,57.977 58.339,58.024L191.291,190.976C191.318,191.003 191.346,191.031 191.375,191.06C191.738,191.424 192.21,191.897 192.655,192.232C193.041,192.522 194.478,193.544 196.27,192.802C198.062,192.06 198.355,190.321 198.422,189.843C198.5,189.291 198.5,188.624 198.499,188.109L198.499,156.496C198.499,156.429 198.499,156.359 198.5,156.285C198.504,155.528 198.511,154.429 198.085,153.4C197.658,152.371 196.877,151.598 196.338,151.065C196.285,151.014 196.235,150.964 196.188,150.917ZM196.188,197.976L63.236,65.024C63.209,64.997 63.181,64.969 63.152,64.94C62.789,64.576 62.317,64.103 61.872,63.768C61.487,63.478 60.05,62.456 58.258,63.198C56.466,63.94 56.173,65.68 56.105,66.157C56.027,66.709 56.028,67.376 56.028,67.891C56.028,67.932 56.028,67.971 56.028,68.01L56.028,99.504C56.028,99.571 56.028,99.641 56.028,99.715C56.023,100.472 56.017,101.571 56.443,102.6C56.869,103.629 57.651,104.402 58.19,104.935C58.242,104.986 58.292,105.036 58.339,105.083L136.491,183.235L134.389,183.235L89.64,138.486C89.593,138.439 89.544,138.389 89.492,138.337C88.96,137.798 88.187,137.017 87.158,136.59C86.129,136.164 85.03,136.171 84.272,136.175C84.199,136.175 84.129,136.176 84.062,136.176L44.832,136.176C44.318,136.175 43.65,136.175 43.098,136.253C42.621,136.32 40.881,136.613 40.139,138.405C39.397,140.197 40.42,141.634 40.71,142.02C41.044,142.465 41.517,142.936 41.881,143.3C41.91,143.328 41.938,143.356 41.965,143.384L47.859,149.277C47.906,149.324 47.955,149.374 48.007,149.426C48.539,149.965 49.312,150.747 50.341,151.173C51.37,151.599 52.469,151.593 53.227,151.588L57.003,151.588C57.26,151.588 57.454,151.588 57.621,151.59C57.684,151.591 57.737,151.592 57.783,151.594C57.817,151.625 57.855,151.662 57.9,151.706C58.02,151.822 58.158,151.96 58.339,152.141L103.787,197.589C103.8,197.602 103.925,197.73 104.06,197.846C104.233,197.994 104.529,198.221 104.949,198.395C105.369,198.569 105.738,198.618 105.965,198.635C106.13,198.647 106.296,198.647 106.334,198.647L106.34,198.646L151.903,198.646L191.291,238.035L191.375,238.119C191.738,238.483 192.21,238.956 192.655,239.29C193.041,239.58 194.478,240.603 196.27,239.861C198.062,239.119 198.355,237.379 198.422,236.902C198.5,236.35 198.5,235.682 198.499,235.168L198.499,203.554C198.499,203.488 198.499,203.418 198.5,203.344C198.504,202.586 198.511,201.487 198.085,200.458C197.658,199.429 196.877,198.657 196.338,198.124C196.285,198.073 196.235,198.023 196.188,197.976Z" style="fill:none;fill-rule:nonzero;stroke:white;stroke-width:6px;"/>
    </g>
    <defs>
        <linearGradient id="_Linear1" x1="0" y1="0" x2="1" y2="0" gradientUnits="userSpaceOnUse" gradientTransform="matrix(1.34711e-14,220,-220,1.34711e-14,127.389,18)"><stop offset="0" style="stop-color:rgb(0,255,255);stop-opacity:1"/><stop offset="0.5" style="stop-color:rgb(46,117,255);stop-opacity:1"/><stop offset="1" style="stop-color:rgb(112,0,255);stop-opacity:1"/></linearGradient>
    </defs>
</svg>
