<svg width="256" height="256" viewBox="0 0 256 256" fill="none" xmlns="http://www.w3.org/2000/svg">
<path d="M196.188 150.917L118.036 72.7646H120.139L164.887 117.513C164.935 117.56 164.984 117.61 165.036 117.662C165.568 118.201 166.341 118.983 167.37 119.409C168.399 119.835 169.498 119.829 170.256 119.824C170.329 119.824 170.399 119.824 170.466 119.824H209.828C209.867 119.824 209.906 119.824 209.947 119.824C210.461 119.824 211.129 119.825 211.681 119.747C212.158 119.679 213.898 119.386 214.64 117.594C215.382 115.802 214.359 114.365 214.069 113.98C213.735 113.535 213.262 113.063 212.898 112.699C212.869 112.671 212.841 112.643 212.814 112.616L206.92 106.722C206.873 106.675 206.824 106.625 206.772 106.573C206.24 106.034 205.467 105.252 204.438 104.826C203.409 104.4 202.31 104.406 201.553 104.411C201.479 104.411 201.409 104.412 201.343 104.412L197.524 104.411C197.268 104.411 197.074 104.411 196.906 104.409C196.844 104.408 196.79 104.407 196.744 104.405C196.711 104.374 196.672 104.337 196.627 104.293C196.507 104.177 196.37 104.039 196.188 103.858L150.74 58.41L150.736 58.4054C150.709 58.3785 150.593 58.2608 150.467 58.1531C150.294 58.0045 149.998 57.7779 149.579 57.604C149.159 57.4301 148.789 57.3812 148.562 57.3639C148.384 57.3504 148.205 57.3524 148.187 57.3524L102.624 57.3528L63.2362 17.9651C63.209 17.9379 63.181 17.9099 63.1524 17.8812C62.7889 17.517 62.3171 17.0443 61.8721 16.7096C61.4866 16.4196 60.0495 15.3969 58.2576 16.1391C56.4657 16.8814 56.1726 18.6207 56.1051 19.0984C56.0271 19.6497 56.0278 20.3175 56.0283 20.8321C56.0283 20.8727 56.0284 20.9122 56.0284 20.9507L56.0284 52.4455C56.0284 52.5122 56.028 52.5824 56.0275 52.6558C56.0231 53.4136 56.0166 54.5125 56.4428 55.5416C56.869 56.5706 57.6507 57.3431 58.1897 57.8757C58.2419 57.9274 58.2919 57.9767 58.339 58.0238L191.291 190.976C191.318 191.003 191.346 191.031 191.375 191.06C191.738 191.424 192.21 191.897 192.655 192.232C193.041 192.522 194.478 193.544 196.27 192.802C198.062 192.06 198.355 190.321 198.422 189.843C198.5 189.291 198.5 188.624 198.499 188.109C198.499 188.068 198.499 188.029 198.499 187.99V156.496C198.499 156.429 198.499 156.359 198.5 156.285C198.504 155.528 198.511 154.429 198.085 153.4C197.658 152.371 196.877 151.598 196.338 151.065C196.285 151.014 196.235 150.964 196.188 150.917ZM196.188 197.976L63.2362 65.0239C63.2089 64.9967 63.181 64.9687 63.1523 64.94C62.7888 64.5758 62.3171 64.1031 61.8721 63.7684C61.4866 63.4784 60.0495 62.4557 58.2576 63.1979C56.4657 63.9402 56.1726 65.6795 56.1051 66.1572C56.0271 66.7085 56.0278 67.3764 56.0283 67.8909C56.0283 67.9315 56.0284 67.971 56.0284 68.0095L56.0284 99.5043C56.0284 99.571 56.028 99.6412 56.0275 99.7146C56.0231 100.472 56.0166 101.571 56.4428 102.6C56.869 103.629 57.6507 104.402 58.1897 104.935C58.2419 104.986 58.2919 105.036 58.339 105.083L136.491 183.235H134.389L89.6404 138.486C89.5933 138.439 89.544 138.389 89.4924 138.337C88.9597 137.798 88.1872 137.017 87.1582 136.59C86.1291 136.164 85.0302 136.171 84.2724 136.175C84.199 136.175 84.1288 136.176 84.0622 136.176H44.9507C44.9122 136.176 44.8727 136.176 44.8322 136.176C44.3176 136.175 43.6497 136.175 43.0984 136.253C42.6207 136.32 40.8814 136.613 40.1391 138.405C39.3969 140.197 40.4196 141.634 40.7096 142.02C41.0443 142.465 41.5169 142.936 41.8812 143.3C41.9099 143.328 41.9379 143.356 41.9651 143.384L47.8585 149.277C47.9056 149.324 47.955 149.374 48.0066 149.426C48.5392 149.965 49.3118 150.747 50.3408 151.173C51.3698 151.599 52.4688 151.593 53.2265 151.588C53.3 151.588 53.3702 151.588 53.4368 151.588L57.0033 151.588C57.2596 151.588 57.4538 151.588 57.6212 151.59C57.6838 151.591 57.7373 151.592 57.7832 151.594C57.8167 151.625 57.8553 151.662 57.9003 151.706C58.0204 151.822 58.1578 151.96 58.339 152.141L103.787 197.589C103.8 197.602 103.925 197.73 104.06 197.846C104.233 197.994 104.529 198.221 104.949 198.395C105.369 198.569 105.738 198.618 105.965 198.635C106.13 198.647 106.296 198.647 106.334 198.647L106.34 198.646L151.903 198.646L191.291 238.035L191.375 238.119C191.738 238.483 192.21 238.956 192.655 239.29C193.041 239.58 194.478 240.603 196.27 239.861C198.062 239.119 198.355 237.379 198.422 236.902C198.5 236.35 198.5 235.682 198.499 235.168C198.499 235.127 198.499 235.088 198.499 235.049V203.554C198.499 203.488 198.499 203.418 198.5 203.344C198.504 202.586 198.511 201.487 198.085 200.458C197.658 199.429 196.877 198.657 196.338 198.124C196.285 198.073 196.235 198.023 196.188 197.976Z" fill="url(#paint0_linear_405_42)"/>
<path d="M196.188 150.917L118.036 72.7646H120.139L164.887 117.513C164.935 117.56 164.984 117.61 165.036 117.662C165.568 118.201 166.341 118.983 167.37 119.409C168.399 119.835 169.498 119.829 170.256 119.824C170.329 119.824 170.399 119.824 170.466 119.824H209.828C209.867 119.824 209.906 119.824 209.947 119.824C210.461 119.824 211.129 119.825 211.681 119.747C212.158 119.679 213.898 119.386 214.64 117.594C215.382 115.802 214.359 114.365 214.069 113.98C213.735 113.535 213.262 113.063 212.898 112.699C212.869 112.671 212.841 112.643 212.814 112.616L206.92 106.722C206.873 106.675 206.824 106.625 206.772 106.573C206.24 106.034 205.467 105.252 204.438 104.826C203.409 104.4 202.31 104.406 201.553 104.411C201.479 104.411 201.409 104.412 201.343 104.412L197.524 104.411C197.268 104.411 197.074 104.411 196.906 104.409C196.844 104.408 196.79 104.407 196.744 104.405C196.711 104.374 196.672 104.337 196.627 104.293C196.507 104.177 196.37 104.039 196.188 103.858L150.74 58.41L150.736 58.4054C150.709 58.3785 150.593 58.2608 150.467 58.1531C150.294 58.0045 149.998 57.7779 149.579 57.604C149.159 57.4301 148.789 57.3812 148.562 57.3639C148.384 57.3504 148.205 57.3524 148.187 57.3524L102.624 57.3528L63.2362 17.9651C63.209 17.9379 63.181 17.9099 63.1524 17.8812C62.7889 17.517 62.3171 17.0443 61.8721 16.7096C61.4866 16.4196 60.0495 15.3969 58.2576 16.1391C56.4657 16.8814 56.1726 18.6207 56.1051 19.0984C56.0271 19.6497 56.0278 20.3175 56.0283 20.8321C56.0283 20.8727 56.0284 20.9122 56.0284 20.9507L56.0284 52.4455C56.0284 52.5122 56.028 52.5824 56.0275 52.6558C56.0231 53.4136 56.0166 54.5125 56.4428 55.5416C56.869 56.5706 57.6507 57.3431 58.1897 57.8757C58.2419 57.9274 58.2919 57.9767 58.339 58.0238L191.291 190.976C191.318 191.003 191.346 191.031 191.375 191.06C191.738 191.424 192.21 191.897 192.655 192.232C193.041 192.522 194.478 193.544 196.27 192.802C198.062 192.06 198.355 190.321 198.422 189.843C198.5 189.291 198.5 188.624 198.499 188.109C198.499 188.068 198.499 188.029 198.499 187.99V156.496C198.499 156.429 198.499 156.359 198.5 156.285C198.504 155.528 198.511 154.429 198.085 153.4C197.658 152.371 196.877 151.598 196.338 151.065C196.285 151.014 196.235 150.964 196.188 150.917ZM196.188 197.976L63.2362 65.0239C63.2089 64.9967 63.181 64.9687 63.1523 64.94C62.7888 64.5758 62.3171 64.1031 61.8721 63.7684C61.4866 63.4784 60.0495 62.4557 58.2576 63.1979C56.4657 63.9402 56.1726 65.6795 56.1051 66.1572C56.0271 66.7085 56.0278 67.3764 56.0283 67.8909C56.0283 67.9315 56.0284 67.971 56.0284 68.0095L56.0284 99.5043C56.0284 99.571 56.028 99.6412 56.0275 99.7146C56.0231 100.472 56.0166 101.571 56.4428 102.6C56.869 103.629 57.6507 104.402 58.1897 104.935C58.2419 104.986 58.2919 105.036 58.339 105.083L136.491 183.235H134.389L89.6404 138.486C89.5933 138.439 89.544 138.389 89.4924 138.337C88.9597 137.798 88.1872 137.017 87.1582 136.59C86.1291 136.164 85.0302 136.171 84.2724 136.175C84.199 136.175 84.1288 136.176 84.0622 136.176H44.9507C44.9122 136.176 44.8727 136.176 44.8322 136.176C44.3176 136.175 43.6497 136.175 43.0984 136.253C42.6207 136.32 40.8814 136.613 40.1391 138.405C39.3969 140.197 40.4196 141.634 40.7096 142.02C41.0443 142.465 41.5169 142.936 41.8812 143.3C41.9099 143.328 41.9379 143.356 41.9651 143.384L47.8585 149.277C47.9056 149.324 47.955 149.374 48.0066 149.426C48.5392 149.965 49.3118 150.747 50.3408 151.173C51.3698 151.599 52.4688 151.593 53.2265 151.588C53.3 151.588 53.3702 151.588 53.4368 151.588L57.0033 151.588C57.2596 151.588 57.4538 151.588 57.6212 151.59C57.6838 151.591 57.7373 151.592 57.7832 151.594C57.8167 151.625 57.8553 151.662 57.9003 151.706C58.0204 151.822 58.1578 151.96 58.339 152.141L103.787 197.589C103.8 197.602 103.925 197.73 104.06 197.846C104.233 197.994 104.529 198.221 104.949 198.395C105.369 198.569 105.738 198.618 105.965 198.635C106.13 198.647 106.296 198.647 106.334 198.647L106.34 198.646L151.903 198.646L191.291 238.035L191.375 238.119C191.738 238.483 192.21 238.956 192.655 239.29C193.041 239.58 194.478 240.603 196.27 239.861C198.062 239.119 198.355 237.379 198.422 236.902C198.5 236.35 198.5 235.682 198.499 235.168C198.499 235.127 198.499 235.088 198.499 235.049V203.554C198.499 203.488 198.499 203.418 198.5 203.344C198.504 202.586 198.511 201.487 198.085 200.458C197.658 199.429 196.877 198.657 196.338 198.124C196.285 198.073 196.235 198.023 196.188 197.976Z" fill="#0057FF" fill-opacity="0.2"/>
<path d="M196.188 150.917L118.036 72.7646H120.139L164.887 117.513C164.935 117.56 164.984 117.61 165.036 117.662C165.568 118.201 166.341 118.983 167.37 119.409C168.399 119.835 169.498 119.829 170.256 119.824C170.329 119.824 170.399 119.824 170.466 119.824H209.828C209.867 119.824 209.906 119.824 209.947 119.824C210.461 119.824 211.129 119.825 211.681 119.747C212.158 119.679 213.898 119.386 214.64 117.594C215.382 115.802 214.359 114.365 214.069 113.98C213.735 113.535 213.262 113.063 212.898 112.699C212.869 112.671 212.841 112.643 212.814 112.616L206.92 106.722C206.873 106.675 206.824 106.625 206.772 106.573C206.24 106.034 205.467 105.252 204.438 104.826C203.409 104.4 202.31 104.406 201.553 104.411C201.479 104.411 201.409 104.412 201.343 104.412L197.524 104.411C197.268 104.411 197.074 104.411 196.906 104.409C196.844 104.408 196.79 104.407 196.744 104.405C196.711 104.374 196.672 104.337 196.627 104.293C196.507 104.177 196.37 104.039 196.188 103.858L150.74 58.41L150.736 58.4054C150.709 58.3785 150.593 58.2608 150.467 58.1531C150.294 58.0045 149.998 57.7779 149.579 57.604C149.159 57.4301 148.789 57.3812 148.562 57.3639C148.384 57.3504 148.205 57.3524 148.187 57.3524L102.624 57.3528L63.2362 17.9651C63.209 17.9379 63.181 17.9099 63.1524 17.8812C62.7889 17.517 62.3171 17.0443 61.8721 16.7096C61.4866 16.4196 60.0495 15.3969 58.2576 16.1391C56.4657 16.8814 56.1726 18.6207 56.1051 19.0984C56.0271 19.6497 56.0278 20.3175 56.0283 20.8321C56.0283 20.8727 56.0284 20.9122 56.0284 20.9507L56.0284 52.4455C56.0284 52.5122 56.028 52.5824 56.0275 52.6558C56.0231 53.4136 56.0166 54.5125 56.4428 55.5416C56.869 56.5706 57.6507 57.3431 58.1897 57.8757C58.2419 57.9274 58.2919 57.9767 58.339 58.0238L191.291 190.976C191.318 191.003 191.346 191.031 191.375 191.06C191.738 191.424 192.21 191.897 192.655 192.232C193.041 192.522 194.478 193.544 196.27 192.802C198.062 192.06 198.355 190.321 198.422 189.843C198.5 189.291 198.5 188.624 198.499 188.109C198.499 188.068 198.499 188.029 198.499 187.99V156.496C198.499 156.429 198.499 156.359 198.5 156.285C198.504 155.528 198.511 154.429 198.085 153.4C197.658 152.371 196.877 151.598 196.338 151.065C196.285 151.014 196.235 150.964 196.188 150.917ZM196.188 197.976L63.2362 65.0239C63.2089 64.9967 63.181 64.9687 63.1523 64.94C62.7888 64.5758 62.3171 64.1031 61.8721 63.7684C61.4866 63.4784 60.0495 62.4557 58.2576 63.1979C56.4657 63.9402 56.1726 65.6795 56.1051 66.1572C56.0271 66.7085 56.0278 67.3764 56.0283 67.8909C56.0283 67.9315 56.0284 67.971 56.0284 68.0095L56.0284 99.5043C56.0284 99.571 56.028 99.6412 56.0275 99.7146C56.0231 100.472 56.0166 101.571 56.4428 102.6C56.869 103.629 57.6507 104.402 58.1897 104.935C58.2419 104.986 58.2919 105.036 58.339 105.083L136.491 183.235H134.389L89.6404 138.486C89.5933 138.439 89.544 138.389 89.4924 138.337C88.9597 137.798 88.1872 137.017 87.1582 136.59C86.1291 136.164 85.0302 136.171 84.2724 136.175C84.199 136.175 84.1288 136.176 84.0622 136.176H44.9507C44.9122 136.176 44.8727 136.176 44.8322 136.176C44.3176 136.175 43.6497 136.175 43.0984 136.253C42.6207 136.32 40.8814 136.613 40.1391 138.405C39.3969 140.197 40.4196 141.634 40.7096 142.02C41.0443 142.465 41.5169 142.936 41.8812 143.3C41.9099 143.328 41.9379 143.356 41.9651 143.384L47.8585 149.277C47.9056 149.324 47.955 149.374 48.0066 149.426C48.5392 149.965 49.3118 150.747 50.3408 151.173C51.3698 151.599 52.4688 151.593 53.2265 151.588C53.3 151.588 53.3702 151.588 53.4368 151.588L57.0033 151.588C57.2596 151.588 57.4538 151.588 57.6212 151.59C57.6838 151.591 57.7373 151.592 57.7832 151.594C57.8167 151.625 57.8553 151.662 57.9003 151.706C58.0204 151.822 58.1578 151.96 58.339 152.141L103.787 197.589C103.8 197.602 103.925 197.73 104.06 197.846C104.233 197.994 104.529 198.221 104.949 198.395C105.369 198.569 105.738 198.618 105.965 198.635C106.13 198.647 106.296 198.647 106.334 198.647L106.34 198.646L151.903 198.646L191.291 238.035L191.375 238.119C191.738 238.483 192.21 238.956 192.655 239.29C193.041 239.58 194.478 240.603 196.27 239.861C198.062 239.119 198.355 237.379 198.422 236.902C198.5 236.35 198.5 235.682 198.499 235.168C198.499 235.127 198.499 235.088 198.499 235.049V203.554C198.499 203.488 198.499 203.418 198.5 203.344C198.504 202.586 198.511 201.487 198.085 200.458C197.658 199.429 196.877 198.657 196.338 198.124C196.285 198.073 196.235 198.023 196.188 197.976Z" stroke="white" stroke-width="6"/>
<defs>
<linearGradient id="paint0_linear_405_42" x1="127.389" y1="18" x2="127.389" y2="238" gradientUnits="userSpaceOnUse">
<stop stop-color="#00FFFF"/>
<stop offset="0.498239" stop-color="#2E75FF"/>
<stop offset="1" stop-color="#7000FF"/>
</linearGradient>
</defs>
</svg>
