<svg width="256" height="256" viewBox="0 0 256 256" fill="none" xmlns="http://www.w3.org/2000/svg">
<path d="M112.268 69.7646C111.64 69.7646 111.326 69.7646 111.248 69.9532C111.17 70.1418 111.392 70.3638 111.836 70.8078L194.067 153.039C194.774 153.745 195.127 154.098 195.313 154.548C195.499 154.997 195.499 155.496 195.499 156.496V187.99C195.499 189.246 195.499 189.874 195.122 190.03C194.744 190.187 194.3 189.743 193.412 188.855L60.4603 55.9025C59.7538 55.196 59.4005 54.8427 59.2144 54.3935C59.0284 53.9443 59.0284 53.4447 59.0284 52.4455L59.0284 20.9507C59.0284 19.6949 59.0284 19.067 59.4056 18.9108C59.7829 18.7545 60.2269 19.1985 61.1148 20.0865L101.202 60.1738C101.291 60.2621 101.335 60.3063 101.391 60.3296C101.447 60.3528 101.509 60.3528 101.634 60.3528L148.187 60.3524C148.312 60.3524 148.374 60.3524 148.431 60.3756C148.487 60.3989 148.531 60.443 148.619 60.5314L194.067 105.979C194.774 106.686 195.127 107.039 195.576 107.225C196.025 107.411 196.525 107.411 197.524 107.411L201.342 107.412C202.341 107.412 202.841 107.412 203.29 107.598C203.739 107.784 204.093 108.137 204.799 108.844L210.692 114.737C211.58 115.625 212.024 116.069 211.868 116.446C211.712 116.824 211.084 116.824 209.828 116.824H170.466C169.467 116.824 168.967 116.824 168.518 116.637C168.069 116.451 167.715 116.098 167.009 115.392L121.561 69.9436C121.472 69.8553 121.428 69.8111 121.372 69.7878C121.316 69.7646 121.254 69.7646 121.129 69.7646H112.268Z" fill="url(#paint0_linear_405_46)"/>
<path d="M112.268 69.7646C111.64 69.7646 111.326 69.7646 111.248 69.9532C111.17 70.1418 111.392 70.3638 111.836 70.8078L194.067 153.039C194.774 153.745 195.127 154.098 195.313 154.548C195.499 154.997 195.499 155.496 195.499 156.496V187.99C195.499 189.246 195.499 189.874 195.122 190.03C194.744 190.187 194.3 189.743 193.412 188.855L60.4603 55.9025C59.7538 55.196 59.4005 54.8427 59.2144 54.3935C59.0284 53.9443 59.0284 53.4447 59.0284 52.4455L59.0284 20.9507C59.0284 19.6949 59.0284 19.067 59.4056 18.9108C59.7829 18.7545 60.2269 19.1985 61.1148 20.0865L101.202 60.1738C101.291 60.2621 101.335 60.3063 101.391 60.3296C101.447 60.3528 101.509 60.3528 101.634 60.3528L148.187 60.3524C148.312 60.3524 148.374 60.3524 148.431 60.3756C148.487 60.3989 148.531 60.443 148.619 60.5314L194.067 105.979C194.774 106.686 195.127 107.039 195.576 107.225C196.025 107.411 196.525 107.411 197.524 107.411L201.342 107.412C202.341 107.412 202.841 107.412 203.29 107.598C203.739 107.784 204.093 108.137 204.799 108.844L210.692 114.737C211.58 115.625 212.024 116.069 211.868 116.446C211.712 116.824 211.084 116.824 209.828 116.824H170.466C169.467 116.824 168.967 116.824 168.518 116.637C168.069 116.451 167.715 116.098 167.009 115.392L121.561 69.9436C121.472 69.8553 121.428 69.8111 121.372 69.7878C121.316 69.7646 121.254 69.7646 121.129 69.7646H112.268Z" fill="#0057FF" fill-opacity="0.2"/>
<path d="M59.0284 68.0095C59.0284 66.7537 59.0284 66.1258 59.4056 65.9696C59.7829 65.8133 60.2269 66.2573 61.1148 67.1453L194.067 200.097C194.774 200.804 195.127 201.157 195.313 201.606C195.499 202.056 195.499 202.555 195.499 203.554V235.049C195.499 236.305 195.499 236.933 195.122 237.089C194.744 237.245 194.3 236.802 193.412 235.914L153.324 195.825C153.236 195.737 153.192 195.693 153.136 195.67C153.08 195.646 153.017 195.646 152.892 195.646L106.34 195.646C106.215 195.646 106.153 195.646 106.097 195.623C106.041 195.6 105.997 195.556 105.908 195.467L60.4603 150.02C59.7538 149.313 59.4005 148.96 58.9513 148.774C58.5021 148.588 58.0025 148.588 57.0033 148.588L53.4368 148.588C52.4376 148.588 51.9381 148.588 51.4888 148.402C51.0396 148.215 50.6864 147.862 49.9798 147.156L44.0865 141.262C43.1985 140.374 42.7545 139.93 42.9108 139.553C43.067 139.176 43.6949 139.176 44.9507 139.176H84.0622C85.0613 139.176 85.5609 139.176 86.0101 139.362C86.4593 139.548 86.8126 139.901 87.5191 140.608L132.967 186.056C133.055 186.144 133.099 186.188 133.156 186.211C133.212 186.235 133.274 186.235 133.399 186.235H142.258C142.886 186.235 143.2 186.235 143.278 186.046C143.356 185.857 143.134 185.635 142.69 185.191L60.4603 102.961C59.7538 102.255 59.4005 101.902 59.2144 101.452C59.0284 101.003 59.0284 100.504 59.0284 99.5043L59.0284 68.0095Z" fill="url(#paint1_linear_405_46)"/>
<path d="M59.0284 68.0095C59.0284 66.7537 59.0284 66.1258 59.4056 65.9696C59.7829 65.8133 60.2269 66.2573 61.1148 67.1453L194.067 200.097C194.774 200.804 195.127 201.157 195.313 201.606C195.499 202.056 195.499 202.555 195.499 203.554V235.049C195.499 236.305 195.499 236.933 195.122 237.089C194.744 237.245 194.3 236.802 193.412 235.914L153.324 195.825C153.236 195.737 153.192 195.693 153.136 195.67C153.08 195.646 153.017 195.646 152.892 195.646L106.34 195.646C106.215 195.646 106.153 195.646 106.097 195.623C106.041 195.6 105.997 195.556 105.908 195.467L60.4603 150.02C59.7538 149.313 59.4005 148.96 58.9513 148.774C58.5021 148.588 58.0025 148.588 57.0033 148.588L53.4368 148.588C52.4376 148.588 51.9381 148.588 51.4888 148.402C51.0396 148.215 50.6864 147.862 49.9798 147.156L44.0865 141.262C43.1985 140.374 42.7545 139.93 42.9108 139.553C43.067 139.176 43.6949 139.176 44.9507 139.176H84.0622C85.0613 139.176 85.5609 139.176 86.0101 139.362C86.4593 139.548 86.8126 139.901 87.5191 140.608L132.967 186.056C133.055 186.144 133.099 186.188 133.156 186.211C133.212 186.235 133.274 186.235 133.399 186.235H142.258C142.886 186.235 143.2 186.235 143.278 186.046C143.356 185.857 143.134 185.635 142.69 185.191L60.4603 102.961C59.7538 102.255 59.4005 101.902 59.2144 101.452C59.0284 101.003 59.0284 100.504 59.0284 99.5043L59.0284 68.0095Z" fill="#0057FF" fill-opacity="0.2"/>
<defs>
<linearGradient id="paint0_linear_405_46" x1="127.389" y1="18" x2="127.389" y2="238" gradientUnits="userSpaceOnUse">
<stop stop-color="#00FFFF"/>
<stop offset="0.498239" stop-color="#2E75FF"/>
<stop offset="1" stop-color="#7000FF"/>
</linearGradient>
<linearGradient id="paint1_linear_405_46" x1="127.389" y1="18" x2="127.389" y2="238" gradientUnits="userSpaceOnUse">
<stop stop-color="#00FFFF"/>
<stop offset="0.498239" stop-color="#2E75FF"/>
<stop offset="1" stop-color="#7000FF"/>
</linearGradient>
</defs>
</svg>
