<?xml version="1.0" encoding="UTF-8" standalone="no"?>
<!DOCTYPE svg PUBLIC "-//W3C//DTD SVG 1.1//EN" "http://www.w3.org/Graphics/SVG/1.1/DTD/svg11.dtd">
<svg width="100%" height="100%" viewBox="0 0 1024 1024" version="1.1" xmlns="http://www.w3.org/2000/svg" xmlns:xlink="http://www.w3.org/1999/xlink" xml:space="preserve" xmlns:serif="http://www.serif.com/" style="fill-rule:evenodd;clip-rule:evenodd;">
    <g transform="matrix(3.99258,0,0,3.99258,3.3881,0.950538)">
        <path d="M112.268,69.765C111.64,69.765 111.326,69.765 111.248,69.953C111.17,70.142 111.392,70.364 111.836,70.808L194.067,153.039C194.774,153.745 195.127,154.098 195.313,154.548C195.499,154.997 195.499,155.496 195.499,156.496L195.499,187.99C195.499,189.246 195.499,189.874 195.122,190.03C194.744,190.187 194.3,189.743 193.412,188.855L60.46,55.903C59.754,55.196 59.401,54.843 59.214,54.394C59.028,53.944 59.028,53.445 59.028,52.446L59.028,20.951C59.028,19.695 59.028,19.067 59.406,18.911C59.783,18.755 60.227,19.199 61.115,20.087L101.202,60.174C101.291,60.262 101.335,60.306 101.391,60.33C101.447,60.353 101.509,60.353 101.634,60.353L148.187,60.352C148.312,60.352 148.374,60.352 148.431,60.376C148.487,60.399 148.531,60.443 148.619,60.531L194.067,105.979C194.774,106.686 195.127,107.039 195.576,107.225C196.025,107.411 196.525,107.411 197.524,107.411L201.342,107.412C202.341,107.412 202.841,107.412 203.29,107.598C203.739,107.784 204.093,108.137 204.799,108.844L210.692,114.737C211.58,115.625 212.024,116.069 211.868,116.446C211.712,116.824 211.084,116.824 209.828,116.824L170.466,116.824C169.467,116.824 168.967,116.824 168.518,116.637C168.069,116.451 167.715,116.098 167.009,115.392L121.561,69.944C121.472,69.855 121.428,69.811 121.372,69.788C121.316,69.765 121.254,69.765 121.129,69.765L112.268,69.765Z" style="fill:url(#_Linear1);fill-rule:nonzero;"/>
        <path d="M112.268,69.765C111.64,69.765 111.326,69.765 111.248,69.953C111.17,70.142 111.392,70.364 111.836,70.808L194.067,153.039C194.774,153.745 195.127,154.098 195.313,154.548C195.499,154.997 195.499,155.496 195.499,156.496L195.499,187.99C195.499,189.246 195.499,189.874 195.122,190.03C194.744,190.187 194.3,189.743 193.412,188.855L60.46,55.903C59.754,55.196 59.401,54.843 59.214,54.394C59.028,53.944 59.028,53.445 59.028,52.446L59.028,20.951C59.028,19.695 59.028,19.067 59.406,18.911C59.783,18.755 60.227,19.199 61.115,20.087L101.202,60.174C101.291,60.262 101.335,60.306 101.391,60.33C101.447,60.353 101.509,60.353 101.634,60.353L148.187,60.352C148.312,60.352 148.374,60.352 148.431,60.376C148.487,60.399 148.531,60.443 148.619,60.531L194.067,105.979C194.774,106.686 195.127,107.039 195.576,107.225C196.025,107.411 196.525,107.411 197.524,107.411L201.342,107.412C202.341,107.412 202.841,107.412 203.29,107.598C203.739,107.784 204.093,108.137 204.799,108.844L210.692,114.737C211.58,115.625 212.024,116.069 211.868,116.446C211.712,116.824 211.084,116.824 209.828,116.824L170.466,116.824C169.467,116.824 168.967,116.824 168.518,116.637C168.069,116.451 167.715,116.098 167.009,115.392L121.561,69.944C121.472,69.855 121.428,69.811 121.372,69.788C121.316,69.765 121.254,69.765 121.129,69.765L112.268,69.765Z" style="fill:rgb(0,87,255);fill-opacity:0.2;fill-rule:nonzero;"/>
        <path d="M59.028,68.01C59.028,66.754 59.028,66.126 59.406,65.97C59.783,65.813 60.227,66.257 61.115,67.145L194.067,200.097C194.774,200.804 195.127,201.157 195.313,201.606C195.499,202.056 195.499,202.555 195.499,203.554L195.499,235.049C195.499,236.305 195.499,236.933 195.122,237.089C194.744,237.245 194.3,236.802 193.412,235.914L153.324,195.825C153.236,195.737 153.192,195.693 153.136,195.67C153.08,195.646 153.017,195.646 152.892,195.646L106.34,195.646C106.215,195.646 106.153,195.646 106.097,195.623C106.041,195.6 105.997,195.556 105.908,195.467L60.46,150.02C59.754,149.313 59.401,148.96 58.951,148.774C58.502,148.588 58.003,148.588 57.003,148.588L53.437,148.588C52.438,148.588 51.938,148.588 51.489,148.402C51.04,148.215 50.686,147.862 49.98,147.156L44.087,141.262C43.199,140.374 42.755,139.93 42.911,139.553C43.067,139.176 43.695,139.176 44.951,139.176L84.062,139.176C85.061,139.176 85.561,139.176 86.01,139.362C86.459,139.548 86.813,139.901 87.519,140.608L132.967,186.056C133.055,186.144 133.099,186.188 133.156,186.211C133.212,186.235 133.274,186.235 133.399,186.235L142.258,186.235C142.886,186.235 143.2,186.235 143.278,186.046C143.356,185.857 143.134,185.635 142.69,185.191L60.46,102.961C59.754,102.255 59.401,101.902 59.214,101.452C59.028,101.003 59.028,100.504 59.028,99.504L59.028,68.01Z" style="fill:url(#_Linear2);fill-rule:nonzero;"/>
        <path d="M59.028,68.01C59.028,66.754 59.028,66.126 59.406,65.97C59.783,65.813 60.227,66.257 61.115,67.145L194.067,200.097C194.774,200.804 195.127,201.157 195.313,201.606C195.499,202.056 195.499,202.555 195.499,203.554L195.499,235.049C195.499,236.305 195.499,236.933 195.122,237.089C194.744,237.245 194.3,236.802 193.412,235.914L153.324,195.825C153.236,195.737 153.192,195.693 153.136,195.67C153.08,195.646 153.017,195.646 152.892,195.646L106.34,195.646C106.215,195.646 106.153,195.646 106.097,195.623C106.041,195.6 105.997,195.556 105.908,195.467L60.46,150.02C59.754,149.313 59.401,148.96 58.951,148.774C58.502,148.588 58.003,148.588 57.003,148.588L53.437,148.588C52.438,148.588 51.938,148.588 51.489,148.402C51.04,148.215 50.686,147.862 49.98,147.156L44.087,141.262C43.199,140.374 42.755,139.93 42.911,139.553C43.067,139.176 43.695,139.176 44.951,139.176L84.062,139.176C85.061,139.176 85.561,139.176 86.01,139.362C86.459,139.548 86.813,139.901 87.519,140.608L132.967,186.056C133.055,186.144 133.099,186.188 133.156,186.211C133.212,186.235 133.274,186.235 133.399,186.235L142.258,186.235C142.886,186.235 143.2,186.235 143.278,186.046C143.356,185.857 143.134,185.635 142.69,185.191L60.46,102.961C59.754,102.255 59.401,101.902 59.214,101.452C59.028,101.003 59.028,100.504 59.028,99.504L59.028,68.01Z" style="fill:rgb(0,87,255);fill-opacity:0.2;fill-rule:nonzero;"/>
    </g>
    <g id="Layer-1" serif:id="Layer 1" transform="matrix(1,0,0,1,0,-98.5197)">
        <path id="path581" d="M559.637,752.494C550.021,752.494 542.152,760.363 542.152,769.979L542.152,1065.1C542.152,1074.72 550.021,1082.59 559.637,1082.59L944.277,1082.59C953.893,1082.59 961.762,1074.72 961.762,1065.1L961.762,769.979C961.762,760.363 953.893,752.494 944.277,752.494L559.637,752.494Z" style="fill:rgb(65,64,66);fill-rule:nonzero;stroke:white;stroke-width:20px;"/>
        <path id="path10" d="M604.194,828.872L584.82,848.247C579.438,852.552 579.438,860.088 584.82,865.47L651.556,932.204L584.82,998.94C579.438,1004.32 579.438,1011.86 584.82,1016.16L604.194,1035.54C609.576,1040.92 617.11,1040.92 621.416,1035.54L696.752,960.201L716.137,940.816C721.6,935.644 721.208,927.792 716.137,923.593L696.763,904.219L621.416,828.872C616.455,824.688 608.504,824.722 604.194,828.872Z" style="fill:white;fill-rule:nonzero;"/>
        <path id="path25" d="M917.92,991.872L760.97,991.872C755.084,991.872 751.161,995.796 751.161,1001.68L751.161,1031.11C751.161,1037 755.084,1040.92 760.97,1040.92L917.92,1040.92C923.805,1040.92 927.729,1037 927.729,1031.11L927.729,1001.68C927.729,995.796 923.805,991.872 917.92,991.872Z" style="fill:white;fill-rule:nonzero;"/>
    </g>
    <defs>
        <linearGradient id="_Linear1" x1="0" y1="0" x2="1" y2="0" gradientUnits="userSpaceOnUse" gradientTransform="matrix(1.34711e-14,220,-220,1.34711e-14,127.389,18)"><stop offset="0" style="stop-color:rgb(0,255,255);stop-opacity:1"/><stop offset="0.5" style="stop-color:rgb(46,117,255);stop-opacity:1"/><stop offset="1" style="stop-color:rgb(112,0,255);stop-opacity:1"/></linearGradient>
        <linearGradient id="_Linear2" x1="0" y1="0" x2="1" y2="0" gradientUnits="userSpaceOnUse" gradientTransform="matrix(1.34711e-14,220,-220,1.34711e-14,127.389,18)"><stop offset="0" style="stop-color:rgb(0,255,255);stop-opacity:1"/><stop offset="0.5" style="stop-color:rgb(46,117,255);stop-opacity:1"/><stop offset="1" style="stop-color:rgb(112,0,255);stop-opacity:1"/></linearGradient>
    </defs>
</svg>
